# xmcd
#
# Track frame offsets:
#	150
#	795
#	12106
#	25312
#	43590
#	46392
#	61904
#	81715
#	94210
#	95852
#	110602
#	124888
#	141771
#	158496
#	176650
#	178888
#	195448
#	209766
#	221527
#	238833
#	254454
#	263531
#	276385
#	293013
#	308757
#	313867
#	330360
#	331023
#
# Disc length: 4420 seconds
#
# Revision: 1
# Processed by: cddbd v1.5.2PL0 Copyright (c) Steve Scherf et al.
# Submitted via: audiograbber 1.83.01
#
DISCID=9511421c
DTITLE=Country Hotdisc - Country Hotdisc 030A
DYEAR=2001
DGENRE=Country
TTITLE0=Indledning -Indledning 
TTITLE1=Rosie´s on a roll -Shane Worley
TTITLE2=Rodeo cool -Michael Ballew
TTITLE3=A Day Last Night -The Drive
TTITLE4=Soundbite for radio use -Lucy Monroe
TTITLE5=Halley Came To Jackson -Lucy Monroe
TTITLE6=Heaven In Your Heart -Clark Steelman
TTITLE7=I´m Not That Lonely Jet -Jessica Phillips
TTITLE8=Soundbite for radio use -Jeff Golden
TTITLE9=No More Tears -Jeff Golden
TTITLE10=Steeling The Sheriff -Derek Thurlby
TTITLE11=Gonna Make Love To You -Joyce-Meré
TTITLE12=Roses, Sweet Choc´lates and Wine -Larry Courtland
TTITLE13=The Linedance Lament -Jim Clarke
TTITLE14=Soundbite for radio use -Steve Byers
TTITLE15=Life On The Move -Steve Byers
TTITLE16=Watching Your Blue Eyes At Play -Ole Jörgensen
TTITLE17=Gonna Watch The Sun Go Down -Mitch Wanwright
TTITLE18=Too Many Miles -Andy Locksley
TTITLE19=Silver Stalion The Highwaymen
TTITLE20=I´ve Never Gone To Bed With An Ugly Women -Bobby Bare
TTITLE21=Give Me One More Chance -Exile
TTITLE22=Sometime When Wee Touch -Tammy Wynette and Mark Gray
TTITLE23=Radio Lover -George Jones
TTITLE24=Soundbite for radio use -Chip Taylor
TTITLE25=Read It In Rolling Stone -Chip Taylor
TTITLE26=Soundbite for radio use -Jeff Golden
TTITLE27=Soundbite for radio use -Jim Clark
EXTD=
EXTT0=
EXTT1=
EXTT2=
EXTT3=
EXTT4=
EXTT5=
EXTT6=
EXTT7=
EXTT8=
EXTT9=
EXTT10=
EXTT11=
EXTT12=
EXTT13=
EXTT14=
EXTT15=
EXTT16=
EXTT17=
EXTT18=
EXTT19=
EXTT20=
EXTT21=
EXTT22=
EXTT23=
EXTT24=
EXTT25=
EXTT26=
EXTT27=
PLAYORDER=
